<?xml version="1.0" encoding="UTF-8"?>
<svg width="4.8495mm" height="50mm" version="1.1" viewBox="0 0 4.8495 50" xmlns="http://www.w3.org/2000/svg">
<g transform="rotate(-90 26.952 35.874)">
<path d="m15.211 13.747 2.3724-4.5709h-0.91293l-1.4532 2.8816-1.4719-2.8816h-0.91914z"/>
<path d="m20.31 12.598c-0.22978 0.13663-0.73904 0.39747-1.2545 0.39747-0.16147 0-0.30431-0.02484-0.43473-0.06832l1.9128-1.9439c-0.32915-0.46578-0.8943-0.7763-1.534-0.7763-1.0247 0-1.8507 0.78251-1.8507 1.7513s0.81977 1.7513 1.9314 1.7513c0.55894 0 1.0744-0.19873 1.2297-0.26084zm-2.2171-0.09316c-0.09937-0.15526-0.14905-0.34157-0.14905-0.5341 0-0.55894 0.43473-1.0433 1.062-1.0433 0.17389 0 0.30431 0.03726 0.47199 0.13042z"/>
<path d="m21.222 13.629h0.79493v-1.0806c0-0.96882 0.22978-1.5712 0.94398-1.5712 0.24842 0 0.40989 0.0621 0.48441 0.08074v-0.7763c-0.118-0.03105-0.32915-0.07452-0.51546-0.07452-0.55273 0-0.8943 0.39126-0.98746 0.70799l0.03105-0.62725h-0.75146z"/>
<path d="m23.825 13.461c0.38504 0.11179 0.95019 0.24221 1.5216 0.24221 0.62725 0 1.6147-0.27326 1.6147-1.1427 0-0.8943-0.98746-0.99988-1.5464-1.0309l-0.118-0.0062c-0.44094-0.02484-0.66451-0.08073-0.66451-0.2981 0-0.21736 0.27326-0.29189 0.72041-0.29189 0.45336 0 0.99988 0.09937 1.3601 0.236v-0.81356c-0.40368-0.09316-0.90051-0.14905-1.3663-0.14905s-1.5402 0.15526-1.5402 1.0061c0 0.84462 0.69557 1.0806 1.4781 1.1179l0.13042 0.0062c0.57136 0.03105 0.72041 0.09937 0.72041 0.2981s-0.22978 0.33536-0.78872 0.33536c-0.57136 0-1.298-0.236-1.5216-0.36641z"/>
<path d="m30.538 12.598c-0.22978 0.13663-0.7142 0.39747-1.2297 0.39747-0.70178 0-1.1117-0.4782-1.1117-1.0371s0.4161-1.0371 1.1117-1.0371c0.52168 0 0.99988 0.26705 1.2297 0.39747v-0.85083c-0.15526-0.0621-0.67072-0.26084-1.2297-0.26084-1.1117 0-1.9066 0.78251-1.9066 1.7513s0.79493 1.7513 1.9066 1.7513c0.55894 0 1.0744-0.19873 1.2297-0.26084z"/>
<path d="m31.29 13.629h0.79493v-1.6458c0-0.54652 0.43473-1.0309 1.0682-1.0309 0.58378 0 0.7763 0.40989 0.7763 0.87567v1.801h0.79493v-1.7948c0-1.0868-0.72041-1.6271-1.5091-1.6271-0.64588 0-1.0433 0.36641-1.2048 0.54652 0 0 0.07452-0.37884 0.07452-0.84462v-0.98746h-0.79493z"/>
<path d="m36.537 13.771 0.94398-2.037 0.92535 2.037 1.6954-3.484h-0.90672l-0.78872 1.8072-0.90672-1.9563-0.91293 1.9563-0.78872-1.8072h-0.90051z"/>
<path d="m40.164 11.958c0 0.96882 0.82598 1.7513 1.8507 1.7513 1.0185 0 1.8445-0.78251 1.8445-1.7513s-0.82598-1.7513-1.8445-1.7513c-1.0247 0-1.8507 0.78251-1.8507 1.7513zm0.79493 0c0-0.55894 0.44094-1.0371 1.0558-1.0371 0.60862 0 1.0496 0.4782 1.0496 1.0371s-0.44094 1.0371-1.0496 1.0371c-0.61483 0-1.0558-0.4782-1.0558-1.0371zm1.2607-2.4096c0 0.26084 0.24221 0.43473 0.49062 0.43473 0.24842 0 0.49062-0.17389 0.49062-0.43473 0-0.25463-0.24221-0.42852-0.49062-0.42852-0.24842 0-0.49062 0.17389-0.49062 0.42852zm-1.3601 0c0 0.26084 0.24221 0.43473 0.49062 0.43473s0.49062-0.17389 0.49062-0.43473c0-0.25463-0.24221-0.42852-0.49062-0.42852s-0.49062 0.17389-0.49062 0.42852z"/>
<path d="m44.58 13.629h0.79493v-1.0806c0-0.96882 0.22978-1.5712 0.94398-1.5712 0.24842 0 0.40989 0.0621 0.48441 0.08074v-0.7763c-0.118-0.03105-0.32915-0.07452-0.51546-0.07452-0.55273 0-0.8943 0.39126-0.98746 0.70799l0.03105-0.62725h-0.75146z"/>
<path d="m47.381 13.629h0.79493v-1.6458c0-0.54652 0.43473-1.0309 1.0682-1.0309 0.58378 0 0.7763 0.40989 0.7763 0.87567v1.801h0.79493v-1.7948c0-1.0868-0.72041-1.6271-1.5091-1.6271-0.64588 0-1.0433 0.36641-1.2048 0.54652 0 0 0.07453-0.37884 0.07453-0.84462v-0.98746h-0.79493z"/>
<path d="m53.945 13.629h0.75146v-2.0246c0-1.1924-1.0309-1.3973-1.6892-1.3973-0.48441 0-0.94398 0.11179-1.1862 0.1801v0.75767c0.18631-0.05589 0.64588-0.22357 1.1986-0.22357 0.5341 0 0.91293 0.15526 0.91293 0.56515v0.14905h-1.1179c-0.73904 0-1.4036 0.24221-1.4036 0.99367 0 0.83219 0.80735 1.0744 1.3663 1.0744 0.58999 0 1.0123-0.27326 1.2048-0.54652zm0-1.3601c-0.08074 0.42852-0.40368 0.75146-1.0682 0.75146-0.54652 0-0.67072-0.21736-0.67072-0.39747 0-0.24221 0.21736-0.35399 0.62104-0.35399z"/>
<path d="m55.547 12.082c0 1.0868 0.60862 1.6271 1.5402 1.6271 0.51546 0 0.95019-0.35399 1.1055-0.54652l-0.01863 0.46578h0.74525v-3.3412h-0.79493v1.6458c0 0.54652-0.40989 1.0309-1.0247 1.0309-0.60241 0-0.75767-0.40989-0.75767-0.87567v-1.801h-0.79493z"/>
<path d="m59.69 13.461c0.38505 0.11179 0.95019 0.24221 1.5216 0.24221 0.62725 0 1.6147-0.27326 1.6147-1.1427 0-0.8943-0.98746-0.99988-1.5464-1.0309l-0.118-0.0062c-0.44094-0.02484-0.66451-0.08073-0.66451-0.2981 0-0.21736 0.27326-0.29189 0.72041-0.29189 0.45336 0 0.99988 0.09937 1.3601 0.236v-0.81356c-0.40368-0.09316-0.90051-0.14905-1.3663-0.14905s-1.5402 0.15526-1.5402 1.0061c0 0.84462 0.69557 1.0806 1.4781 1.1179l0.13042 0.0062c0.57136 0.03105 0.72041 0.09937 0.72041 0.2981s-0.22978 0.33536-0.78872 0.33536c-0.57136 0-1.298-0.236-1.5216-0.36641z"/>
</g>
</svg>
