<?xml version="1.0" encoding="UTF-8" standalone="no"?>
<!-- Created with Inkscape (http://www.inkscape.org/) -->

<svg
   width="23.450939mm"
   height="224.84938mm"
   viewBox="0 0 23.450939 224.84938"
   version="1.1"
   id="svg360"
   inkscape:version="1.2 (dc2aedaf03, 2022-05-15)"
   sodipodi:docname="drawing.svg"
   xmlns:inkscape="http://www.inkscape.org/namespaces/inkscape"
   xmlns:sodipodi="http://sodipodi.sourceforge.net/DTD/sodipodi-0.dtd"
   xmlns="http://www.w3.org/2000/svg"
   xmlns:svg="http://www.w3.org/2000/svg">
  <sodipodi:namedview
     id="namedview362"
     pagecolor="#ffffff"
     bordercolor="#666666"
     borderopacity="1.0"
     inkscape:showpageshadow="2"
     inkscape:pageopacity="0.0"
     inkscape:pagecheckerboard="0"
     inkscape:deskcolor="#d1d1d1"
     inkscape:document-units="mm"
     showgrid="false"
     inkscape:zoom="0.51685261"
     inkscape:cx="385.99012"
     inkscape:cy="510.78392"
     inkscape:window-width="1920"
     inkscape:window-height="1027"
     inkscape:window-x="-8"
     inkscape:window-y="-8"
     inkscape:window-maximized="1"
     inkscape:current-layer="layer1" />
  <defs
     id="defs357" />
  <g
     inkscape:label="Layer 1"
     inkscape:groupmode="layer"
     id="layer1"
     transform="translate(-94.97593,-22.985003)">
    <g
       id="g580"
       transform="rotate(-90,106.7014,135.40969)">
      <path
         d="m 122.12124,127.62683 c 1.02237,0 2.02163,-0.79409 2.02163,-1.98466 0,-1.16242 -0.99926,-1.95795 -2.02163,-1.95795 -1.02368,0 -2.02293,0.79553 -2.02293,1.95795 0,1.1906 0.99923,1.98466 2.02293,1.98466"
         stroke-width="0.223581"
         id="path2" />
      <path
         d="m 116.51472,127.62683 c 1.02335,0 2.02162,-0.79409 2.02162,-1.98466 0,-1.16242 -0.99827,-1.95795 -2.02162,-1.95795 -1.025,0 -2.02293,0.79553 -2.02293,1.95795 0,1.1906 0.99793,1.98466 2.02293,1.98466"
         stroke-width="0.223581"
         id="path4" />
      <path
         d="m 116.96715,125.21648 c 0.31666,0 0.62553,-0.25484 0.62553,-0.63693 0,-0.37306 -0.30887,-0.62836 -0.62553,-0.62836 -0.31715,0 -0.62595,0.25531 -0.62595,0.62836 0,0.38208 0.30877,0.63693 0.62595,0.63693"
         fill="#ffffff"
         stroke-width="0.0704559"
         id="path6" />
      <path
         d="m 121.64763,125.2006 c 0.32129,0 0.63471,-0.24931 0.63471,-0.62309 0,-0.36494 -0.31342,-0.61471 -0.63471,-0.61471 -0.32181,0 -0.6351,0.24977 -0.6351,0.61471 0,0.3738 0.31332,0.62309 0.6351,0.62309"
         fill="#ffffff"
         stroke-width="0.070194"
         id="path8" />
      <g
         transform="matrix(0.24443266,0,0,0.24443266,62.918123,109.31043)"
         style="white-space:pre;shape-inside:url(#rect455)"
         aria-label="HAUS"
         id="g22">
        <path
           d="m 420.73,136.33 q 0,4.4826 0.656,6.6693 0.65599,2.1867 2.1867,3.1707 1.5307,0.87466 4.592,1.0933 0.656,2.296 0.656,6.6693 -5.6853,-0.328 -15.416,-0.328 -10.277,0 -17.056,0.328 0,-3.8266 0.76533,-6.6693 3.0613,-0.21867 4.592,-1.0933 1.5307,-0.984 2.0773,-3.1707 0.656,-2.1867 0.656,-6.6693 v -17.384 q -19.899,0 -27.005,0.76533 v 16.619 q 0,4.4826 0.54667,6.6693 0.65599,2.1867 2.1867,3.1707 1.5307,0.87466 4.592,1.0933 0.76533,2.1867 0.76533,6.6693 -5.6853,-0.328 -15.416,-0.328 -10.387,0 -17.165,0.328 0,-3.3893 0.87466,-6.6693 3.0613,-0.21867 4.4827,-1.0933 1.5307,-0.984 2.0773,-3.1707 0.656,-2.1867 0.656,-6.6693 v -39.469 q 0,-4.4827 -0.656,-6.56 -0.54666,-2.1867 -2.0773,-3.0613 -1.4213,-0.87466 -4.4827,-1.2027 -0.87466,-2.624 -0.87466,-6.6693 5.6853,0.328 16.619,0.328 9.4026,0 15.963,-0.328 0,4.264 -0.76533,6.6693 -3.0613,0.328 -4.592,1.2027 -1.5307,0.87466 -2.1867,3.0613 -0.54667,2.1867 -0.54667,6.56 v 15.307 h 27.005 v -15.307 q 0,-4.3733 -0.656,-6.56 -0.54666,-2.1867 -2.0773,-3.0613 -1.4213,-0.87466 -4.592,-1.2027 -0.76533,-2.296 -0.76533,-6.6693 5.7946,0.328 16.509,0.328 9.4026,0 15.963,-0.328 0,2.4053 -0.10933,3.8267 -0.10934,1.4213 -0.656,2.8427 -3.0613,0.328 -4.592,1.2027 -1.5307,0.87466 -2.1867,3.0613 -0.54666,2.1867 -0.54666,6.56 z"
           id="path14" />
        <path
           d="m 508.63,147.26 q 0.76533,2.624 0.76533,6.6693 -5.0293,-0.328 -14.979,-0.328 -11.043,0 -15.963,0.328 0,-4.3733 0.87466,-6.6693 2.624,-0.43733 3.8267,-1.2027 1.2027,-0.87467 1.2027,-2.4053 0,-1.4213 -1.4213,-4.8106 l -2.624,-6.232 q -14.651,0 -26.896,0.76533 l -1.4213,3.8266 q -1.2027,3.0613 -1.2027,5.0293 0,4.3733 5.248,5.0293 0.76534,2.4053 0.76534,6.6693 -3.7173,-0.328 -11.589,-0.328 -6.56,0 -9.84,0.328 0,-4.0453 0.98399,-6.6693 2.7333,-0.43733 4.3733,-2.624 1.7493,-2.296 4.3733,-8.7466 l 22.851,-56.306 q 1.5307,-0.328 3.0613,-0.43733 1.5307,-0.10933 3.3893,-0.10933 l 25.037,56.306 q 2.296,5.0293 3.608,7.4346 1.4213,2.4053 2.624,3.3893 1.2027,0.87466 2.952,1.0933 z m -30.941,-20.664 -6.1226,-14.213 q -3.3893,-7.544 -5.1386,-13.885 -1.968,6.56 -4.8106,13.885 l -5.4666,14.213 z"
           id="path16" />
        <path
           d="m 570.73,123.76 q 0,9.84 -1.4213,15.525 -1.312,5.6853 -5.0293,9.2933 -6.3413,6.0133 -18.587,6.0133 -10.496,0 -16.619,-2.8427 -6.0133,-2.952 -8.6373,-8.7466 -2.624,-5.7946 -2.624,-15.088 v -30.723 q 0,-4.592 -0.54667,-6.7786 -0.54666,-2.1867 -1.968,-3.0613 -1.312,-0.87466 -4.3733,-1.312 -0.656,-2.8427 -0.656,-6.6693 4.4826,0.328 13.776,0.328 12.901,0 17.931,-0.328 0,4.264 -0.656,6.6693 -3.28,0.43733 -4.7013,1.312 -1.4213,0.87467 -1.968,3.0613 -0.54667,2.0773 -0.54667,6.7786 v 28.973 q 0,10.277 3.608,15.635 3.608,5.358 11.699,5.3573 2.8427,0 5.6853,-1.0933 2.8426,-1.0933 4.7013,-3.28 2.0773,-2.5147 2.952,-6.6693 0.984,-4.264 0.984,-12.573 v -23.179 q 0,-5.4666 -0.656,-8.3093 -0.656,-2.952 -2.1867,-4.264 -1.5307,-1.312 -4.592,-1.7493 -0.54666,-3.1707 -0.54666,-6.6693 4.0453,0.328 11.261,0.328 6.9973,0 11.043,-0.328 0,3.8267 -0.656,6.6693 -2.7333,0.328 -4.1546,1.64 -1.4213,1.2027 -1.968,4.0453 -0.54666,2.8427 -0.54666,8.0906 z"
           id="path18" />
        <path
           d="m 611.73,154.59 q -6.888,0 -12.792,-1.64 -5.904,-1.64 -11.917,-4.92 1.312,-6.7786 1.312,-17.056 3.7173,-1.0933 9.84,-1.0933 0.54666,9.512 3.608,13.557 3.0613,3.936 10.387,3.936 6.1226,0 9.0746,-2.5147 3.0613,-2.624 3.0613,-6.6693 0,-3.1707 -1.8587,-5.4666 -1.8587,-2.2959 -4.7013,-3.8267 -2.7333,-1.64 -7.7626,-4.0453 -6.888,-3.28 -11.152,-6.0133 -4.1547,-2.7333 -7.216,-7.3253 -3.0613,-4.7013 -3.0613,-11.589 0,-10.387 6.6693,-15.744 6.7786,-5.4666 17.712,-5.4666 5.7946,0 11.589,1.4213 5.7944,1.4213 8.9653,3.3893 0,11.152 0.65599,15.525 -1.64,0.87466 -4.3733,1.312 -2.624,0.43733 -5.1386,0.43733 -1.4213,-8.6373 -4.4826,-11.917 -2.952,-3.28 -8.0906,-3.28 -4.7013,0 -7.4346,2.1867 -2.7333,2.1867 -2.7333,6.232 0,3.3893 1.968,5.904 2.0773,2.5147 5.0293,4.264 3.0613,1.7493 8.4186,4.264 6.888,3.1707 11.261,5.904 4.3733,2.7333 7.4346,7.3253 3.0613,4.4826 3.0613,11.043 0,9.84 -7.1066,15.853 -6.9973,6.0133 -20.227,6.0133 z"
           id="path20" />
      </g>
      <g
         transform="matrix(0.24719756,0,0,0.24719756,-92.510083,108.92079)"
         style="white-space:pre;shape-inside:url(#rect455-9)"
         aria-label="TEMPORAR"
         id="g40">
        <path
           d="m 415.48,79.366 q -0.10933,8.4186 1.7493,19.243 -3.4986,1.5307 -8.6373,1.312 -0.87467,-7.1066 -3.7173,-10.387 -2.8426,-3.28 -8.6373,-3.28 h -3.8267 v 50.075 q 0,4.592 0.656,6.7786 0.76533,2.0773 2.7333,3.0613 2.0773,0.87466 6.232,1.0933 0.87466,2.0773 0.87466,6.6693 -6.56,-0.328 -18.04,-0.328 -13.229,0 -20.008,0.328 0,-3.7173 0.98399,-6.6693 4.264,-0.21867 6.3413,-1.0933 2.0773,-0.984 2.952,-3.1707 0.87466,-2.1867 0.87466,-6.6693 v -50.075 h -2.7333 q -4.4827,0 -7.216,1.5307 -2.624,1.5307 -4.0453,4.4827 -1.4213,2.8427 -2.5147,7.6533 -5.7946,0 -8.4186,-1.312 0.98399,-4.592 1.64,-9.84 0.656,-5.3573 0.656,-9.4026 7.6533,0.328 31.16,0.328 19.461,0 30.941,-0.328 z"
           id="path24" />
        <path
           d="m 474.3,132.61 q 5.6853,0.87466 8.0906,3.1706 -2.1867,6.6693 -3.3893,18.04 -10.715,-0.21867 -26.021,-0.21867 -15.525,0 -31.269,0.328 0,-4.3733 0.76533,-6.6693 3.0613,-0.21867 4.592,-1.0933 1.5307,-0.984 2.0773,-3.28 0.656,-2.4053 0.656,-7.216 v -38.813 q 0,-4.3733 -0.656,-6.56 -0.54666,-2.1867 -2.0773,-3.0613 -1.5307,-0.87466 -4.7013,-1.2027 -0.65599,-2.5147 -0.65599,-6.6693 8.528,0.328 24.381,0.328 22.523,0 29.957,-0.328 0.76533,12.027 2.296,18.368 -3.1707,1.7493 -8.0906,1.7493 -0.87467,-6.4506 -4.3733,-9.9493 -3.4987,-3.4987 -12.027,-3.4987 h -7.6533 v 27.333 h 3.28 q 6.0133,0 8.2,-1.7493 2.1867,-1.7493 2.296,-6.56 3.1706,-1.0933 7.544,-1.0933 -0.328,5.3573 -0.328,12.464 0,7.6533 0.328,12.792 -4.92,0 -7.3253,-0.87466 -0.43733,-4.92 -2.7333,-6.6693 -2.1867,-1.8587 -7.9813,-1.8587 h -3.28 v 15.635 q 0,4.7013 0.76533,7.1066 0.76533,2.4053 2.7333,3.3893 1.968,0.984 5.6853,0.984 h 1.312 q 5.576,0 8.856,-1.5307 3.28,-1.5307 5.1386,-4.4827 1.968,-2.952 3.608,-8.3093 z"
           id="path26" />
        <path
           d="m 588.01,147.15 q 0.65599,2.4053 0.65599,6.7786 -4.592,-0.328 -17.384,-0.328 -5.6853,0 -15.197,0.328 0,-3.4986 0.87466,-6.6693 4.0453,-0.43733 5.4666,-1.8587 1.4213,-1.4213 1.4213,-5.248 0,-1.0933 -0.43733,-6.1226 l -3.608,-33.675 -21.429,53.355 q -2.1867,0.87466 -6.4506,0.87466 l -24.163,-53.901 -3.0613,29.629 q -0.43733,3.608 -0.43733,6.9973 0,5.4666 1.64,7.544 1.64,2.0773 5.576,2.4053 0.65599,2.4053 0.65599,6.6693 -4.264,-0.328 -11.808,-0.328 -4.92,0 -12.464,0.328 0,-4.3733 0.76533,-6.6693 2.952,-0.21867 4.592,-1.64 1.7493,-1.5307 2.8426,-5.1386 1.0933,-3.6079 1.64,-10.387 l 2.952,-32.472 q 0.21867,-2.8427 0.21867,-3.7173 0,-4.4827 -1.64,-6.1226 -1.5307,-1.7493 -5.576,-1.7493 -0.76533,-2.296 -0.76533,-6.6693 4.1546,0.328 11.917,0.328 7.9813,0 11.808,-0.328 l 23.397,53.573 20.227,-53.573 q 4.92,0.328 12.355,0.328 6.888,0 11.699,-0.328 0,4.0453 -0.76533,6.6693 -3.936,0 -5.6853,1.8587 -1.7493,1.8587 -1.7493,6.56 0,0.87466 0.21867,3.4987 l 3.4986,34.877 q 0.656,6.1226 1.4213,8.9653 0.87466,2.8427 2.296,3.936 1.5307,1.0933 4.4827,1.4213 z"
           id="path28" />
        <path
           d="m 627.92,121.13 q 5.3573,0 8.7466,-3.8266 3.4987,-3.8267 3.4987,-12.573 0,-8.6373 -3.7173,-13.557 -3.7173,-4.9197 -11.371,-4.92 -2.5147,0 -4.92,0.656 v 47.779 q 0,4.7013 0.984,7.3253 1.0933,2.624 3.3893,3.8267 2.296,1.0933 6.4506,1.4213 0.76533,2.0773 0.76533,6.6693 -5.576,-0.328 -17.603,-0.328 -12.464,0 -18.477,0.328 0,-4.264 0.656,-6.6693 3.0613,-0.21867 4.592,-1.0933 1.5307,-0.984 2.1867,-3.1707 0.656,-2.1867 0.656,-6.6693 v -39.469 q 0,-4.4827 -0.656,-6.56 -0.54666,-2.1867 -2.0773,-3.0613 -1.4213,-0.87466 -4.4827,-1.2027 -0.87466,-2.624 -0.87466,-6.6693 9.512,0.328 16.509,0.328 l 10.824,-0.10933 q 2.952,-0.10933 6.9973,-0.10933 27.115,0 27.115,22.085 0,7.4346 -3.0613,13.557 -3.0613,6.0133 -8.9653,9.512 -5.904,3.4986 -14.213,3.4986 -4.4827,0 -7.544,-1.2027 -0.21867,-1.5307 -0.21867,-2.296 0,-2.296 0.76533,-3.936 1.7493,0.43733 4.0453,0.43733 z"
           id="path30" />
        <path
           d="m 701.72,154.59 q -11.152,0 -19.571,-4.8106 -8.3093,-4.92 -12.901,-13.557 -4.4826,-8.7466 -4.4826,-19.899 0,-11.1524 4.7013,-19.68 4.8106,-8.528 13.229,-13.229 8.4184,-4.701 19.024,-4.7013 10.824,0 19.243,4.592 8.419,4.592 13.12,13.011 4.7013,8.4186 4.7013,19.352 0,11.152 -4.7013,20.008 -4.592,8.856 -13.011,13.885 -8.419,5.029 -19.352,5.0293 z m 1.7493,-6.9973 q 5.576,0 9.6213,-3.7173 4.1547,-3.7173 6.3413,-10.387 2.1866,-6.6697 2.1867,-15.307 0,-9.0746 -2.8427,-16.509 -2.7333,-7.4346 -7.6533,-11.808 -4.92,-4.3733 -11.261,-4.3733 -5.3573,0 -9.512,3.3893 -4.0453,3.3893 -6.3413,9.84 -2.1867,6.3413 -2.1867,14.869 0,9.184 2.4053,16.947 2.5147,7.7626 7.4346,12.464 4.92,4.592 11.808,4.592 z"
           id="path32" />
        <path
           d="m 805.91,138.08 q 2.0773,3.608 3.3893,5.3573 1.4213,1.64 3.1706,2.5147 1.8587,0.76533 4.92,0.984 0,3.936 -0.87467,6.6693 -14.651,0 -20.992,0.984 -3.0613,-5.904 -5.4666,-11.48 l -2.0773,-4.592 q -2.5147,-5.6853 -4.8106,-9.0746 -2.1867,-3.3893 -5.7946,-6.6693 l -2.8427,0.10933 -2.8427,-0.10933 v 12.901 q 0,4.8106 0.54667,7.216 0.54666,2.4053 1.8587,3.28 1.312,0.87466 3.8266,1.0933 0.656,2.0773 0.656,6.6693 -6.56,-0.328 -16.181,-0.328 -8.856,0 -15.197,0.328 0,-4.264 0.76533,-6.6693 3.0613,-0.21867 4.592,-1.0933 1.5307,-0.984 2.0773,-3.1707 0.65599,-2.1867 0.65599,-6.6693 v -39.579 q 0,-4.4827 -0.65599,-6.6693 -0.54667,-2.1867 -2.0773,-3.0613 -1.53063,-0.8746 -4.7013,-1.0933 -0.656,-2.624 -0.656,-6.56 10.168,0.328 16.181,0.328 1.968,0 8.0906,-0.21867 7.6533,-0.21867 12.355,-0.21867 12.792,0 19.243,5.4666 6.4506,5.4666 6.4506,14.104 0,8.3093 -4.592,13.885 -4.592,5.4666 -12.355,7.544 3.8266,2.624 6.232,6.0133 2.5147,3.28 7.1066,11.808 z m -30.285,-22.085 q 7.216,0 12.027,-3.936 4.811,-3.936 4.8106,-11.371 0,-6.9973 -3.7173,-10.824 -3.608,-3.936 -10.824,-3.936 -3.4986,0 -6.232,0.87466 v 28.864 q 2.5147,0.328 3.936,0.328 z"
           id="path34" />
        <path
           d="m 894.47,147.26 q 0.76533,2.624 0.76533,6.6693 -5.0293,-0.328 -14.979,-0.328 -11.043,0 -15.963,0.328 0,-4.3733 0.87466,-6.6693 2.624,-0.43733 3.8267,-1.2027 1.2027,-0.87467 1.2027,-2.4053 0,-1.4213 -1.4213,-4.8106 l -2.624,-6.232 q -14.651,0 -26.896,0.76533 l -1.4213,3.8266 q -1.2027,3.0613 -1.2027,5.0293 0,4.3733 5.248,5.0293 0.76533,2.4053 0.76533,6.6693 -3.7173,-0.328 -11.589,-0.328 -6.56,0 -9.84,0.328 0,-4.0453 0.98399,-6.6693 2.7333,-0.43733 4.3733,-2.624 1.7493,-2.296 4.3733,-8.7466 l 22.851,-56.306 q 1.5307,-0.328 3.0613,-0.43733 1.5307,-0.10933 3.3893,-0.10933 l 25.037,56.306 q 2.296,5.0293 3.608,7.4346 1.4213,2.4053 2.624,3.3893 1.2027,0.87466 2.952,1.0933 z m -30.941,-20.664 -6.1226,-14.213 q -3.3893,-7.544 -5.1386,-13.885 -1.968,6.56 -4.8106,13.885 l -5.4666,14.213 z"
           id="path36" />
        <path
           d="m 960.4,138.08 q 2.0773,3.608 3.3893,5.3573 1.4213,1.64 3.1707,2.5147 1.8587,0.76533 4.92,0.984 0,3.936 -0.87467,6.6693 -14.651,0 -20.992,0.984 -3.0613,-5.904 -5.4666,-11.48 l -2.0773,-4.592 q -2.5147,-5.6853 -4.8106,-9.0746 -2.1867,-3.3893 -5.7946,-6.6693 l -2.8427,0.10933 -2.8427,-0.10933 v 12.901 q 0,4.8106 0.54667,7.216 0.54666,2.4053 1.8587,3.28 1.312,0.87466 3.8266,1.0933 0.656,2.0773 0.656,6.6693 -6.56,-0.328 -16.181,-0.328 -8.856,0 -15.197,0.328 0,-4.264 0.76533,-6.6693 3.0613,-0.21867 4.592,-1.0933 1.5307,-0.984 2.0773,-3.1707 0.656,-2.1867 0.656,-6.6693 v -39.579 q 0,-4.4827 -0.656,-6.6693 -0.54666,-2.1867 -2.0773,-3.0613 -1.53064,-0.8746 -4.7013,-1.0933 -0.656,-2.624 -0.656,-6.56 10.168,0.328 16.181,0.328 1.968,0 8.0906,-0.21867 7.6533,-0.21867 12.355,-0.21867 12.792,0 19.243,5.4666 6.4506,5.4666 6.4506,14.104 0,8.3093 -4.592,13.885 -4.592,5.4666 -12.355,7.544 3.8266,2.624 6.232,6.0133 2.5147,3.28 7.1066,11.808 z m -30.285,-22.085 q 7.216,0 12.027,-3.936 4.811,-3.936 4.8106,-11.371 0,-6.9973 -3.7173,-10.824 -3.608,-3.936 -10.824,-3.936 -3.4986,0 -6.232,0.87466 v 28.864 q 2.5147,0.328 3.936,0.328 z"
           id="path38" />
      </g>
    </g>
  </g>
</svg>
