<?xml version="1.0" encoding="UTF-8" standalone="no"?>
<svg
   width="240"
   height="320"
   version="1.1"
   viewBox="0 0 240 320"
   xml:space="preserve"
   id="svg44"
   sodipodi:docname="logooo.svg"
   inkscape:version="1.2 (dc2aedaf03, 2022-05-15)"
   xmlns:inkscape="http://www.inkscape.org/namespaces/inkscape"
   xmlns:sodipodi="http://sodipodi.sourceforge.net/DTD/sodipodi-0.dtd"
   xmlns="http://www.w3.org/2000/svg"
   xmlns:svg="http://www.w3.org/2000/svg"><defs
     id="defs48" /><sodipodi:namedview
     id="namedview46"
     pagecolor="#ffffff"
     bordercolor="#666666"
     borderopacity="1.0"
     inkscape:showpageshadow="2"
     inkscape:pageopacity="0.0"
     inkscape:pagecheckerboard="0"
     inkscape:deskcolor="#d1d1d1"
     showgrid="false"
     inkscape:zoom="0.99056961"
     inkscape:cx="361.91298"
     inkscape:cy="244.30388"
     inkscape:window-width="1920"
     inkscape:window-height="1027"
     inkscape:window-x="-8"
     inkscape:window-y="-8"
     inkscape:window-maximized="1"
     inkscape:current-layer="g42" /><g
     fill="#231f20"
     id="g42"
     transform="translate(-30,-30)"><path
       d="M 30,350 H 270 V 30 H 30 Z"
       stroke-width="0.97014"
       id="path10" /><path
       d="m 187.5,160 v 30.909 H 175 v 30.909 h -12.5 v -30.909 h -50 V 160 H 125 v 15.455 h 50 V 160 Z m -75,30.909 v 30.909 H 100 V 190.909 Z M 100,221.818 v 30.909 H 87.5 v -30.909 z m -12.5,30.909 v 30.909 H 75 V 252.727 Z M 75,283.636 v 30.909 h 50 v -30.909 h 12.5 v 30.909 H 150 V 299.09 h 12.5 v 15.455 H 200 V 299.09 h 12.5 v 15.455 H 225 v -30.909 h 12.5 v 30.909 H 250 V 330 H 50 v -15.455 h 12.5 v -30.909 z m 150,0 H 212.5 V 252.727 H 225 Z M 212.5,252.727 H 200 v -30.909 h 12.5 z M 200,221.818 H 187.5 V 190.909 H 200 Z m 0,77.273 H 187.5 V 268.182 H 200 Z M 187.5,268.182 H 175 v -30.909 h 12.5 z m -12.5,0 v 30.909 h -12.5 v -30.909 z m -37.5,15.455 V 252.728 H 150 v 30.909 z M 150,252.728 v -30.909 h 12.5 v 30.909 z m -25,-15.455 v 30.909 h -12.5 v -30.909 z m -12.5,30.909 v 30.909 H 100 v -30.909 z"
       fill="#ffffff"
       id="path12" /></g></svg>
